<svg xmlns="http://www.w3.org/2000/svg" viewBox="0 0 151.88 153.71"><defs><style>.cls-1{fill:#231f20;}</style></defs><title>logo-remade</title><g id="Layer_2" data-name="Layer 2"><g id="Layer_1-2" data-name="Layer 1"><path d="M149.79,98.2a76.88,76.88,0,0,1-147.7,0"/><path d="M75.94,52.86A17.27,17.27,0,0,1,92.41,65h59.47A76.87,76.87,0,0,0,0,65H59.47A17.27,17.27,0,0,1,75.94,52.86Z"/><path class="cls-1" d="M22.87,91.7H21L11.58,73.32H16l6,12.14,5.79-12.14h4.61Z"/><path class="cls-1" d="M45.83,91.7V73.38h3.84V91.7Z"/><path class="cls-1" d="M82,91.7,69.44,80.06s.09.86.09,1.89V91.7H65.69V73.38h1.77L80.11,85.26S80,84.4,80,83.58V73.38h3.81V91.7Z"/><path class="cls-1" d="M108.59,83.66v8h-3.81v-8L97.07,73.32h4.67l5,7.15,5.17-7.15h4.58Z"/><path class="cls-1" d="M129.69,91.7V73.38h3.84l-.06,14.77h7.92V91.7Z"/></g></g></svg>