<svg xmlns="http://www.w3.org/2000/svg" viewBox="0 0 149.3 47.44"><defs><style>.cls-1,.cls-3{fill:#fff;}.cls-2{fill:#231f20;}.cls-3{font-size:4px;font-family:Tahoma, Tahoma;}.cls-4{letter-spacing:-0.02em;}.cls-5{letter-spacing:-0.03em;}.cls-6{letter-spacing:-0.04em;}.cls-7{letter-spacing:-0.02em;}</style></defs><title>logo-full</title><g id="Layer_2" data-name="Layer 2"><g id="Layer_1-2" data-name="Layer 1"><path d="M149.3,20.4c-.51,0-1,.12-1.53.12H1.37c-.45,0-.89,0-1.34,0v-.24c.4,0,.79,0,1.19,0H148c.44,0,.88,0,1.31,0Z"/><path d="M149.3,30.32c-.52,0-1,0-1.55,0H0l0-.17A4.73,4.73,0,0,1,.66,30c.27,0,.56,0,.84,0H147.65c.55,0,1.1.08,1.65.12Z"/><path d="M.6,29.41C1.49,28.17,2.27,27,3.13,25.9a.91.91,0,0,0,0-1.26C2.26,23.51,1.48,22.37.6,21.14H148.5c-.84,1.17-1.62,2.32-2.48,3.43A1,1,0,0,0,146,26c.84,1.09,1.61,2.21,2.47,3.41Z"/><circle class="cls-1" cx="74.94" cy="23.62" r="23.62"/><g id="Layer_2-2" data-name="Layer 2"><g id="Layer_1-2-2" data-name="Layer 1-2"><path d="M97.74,30.3a23.73,23.73,0,0,1-45.59,0"/><path d="M74.94,16.31A5.33,5.33,0,0,1,80,20.05H98.38a23.73,23.73,0,0,0-46.88,0H69.86A5.33,5.33,0,0,1,74.94,16.31Z"/><path class="cls-2" d="M58.56,28.29H58l-2.91-5.67h1.36l1.85,3.75,1.79-3.75H61.5Z"/><path class="cls-2" d="M65.65,28.29V22.64h1.19v5.66Z"/><path class="cls-2" d="M76.81,28.29,72.93,24.7s0,.27,0,.58v3H71.78V22.64h.55l3.9,3.67a4.72,4.72,0,0,1,0-.52V22.64h1.18v5.66Z"/><path class="cls-2" d="M85,25.81v2.47H83.84V25.81l-2.38-3.19H82.9l1.54,2.21L86,22.62h1.41Z"/><path class="cls-2" d="M91.53,28.29V22.64h1.19l0,4.56h2.44v1.1Z"/></g></g><text class="cls-3" transform="translate(103.8 27.13)">WELLING<tspan class="cls-4" x="16.66" y="0">T</tspan><tspan x="18.91" y="0">ON, NZ</tspan></text><text class="cls-3" transform="translate(6.13 27.13)">66 COU<tspan class="cls-5" x="13.47" y="0">R</tspan><tspan x="15.85" y="0">TEN</tspan><tspan class="cls-6" x="23.1" y="0">A</tspan><tspan x="25.35" y="0">Y P</tspan><tspan class="cls-7" x="31.11" y="0">L</tspan><tspan x="33.02" y="0">ACE</tspan></text></g></g></svg>