<svg xmlns="http://www.w3.org/2000/svg" viewBox="0 0 655.63 208.34"><defs><style>.cls-1{fill:#f0ecd9;}.cls-2{fill:#231f20;}.cls-3{font-size:17.57px;fill:#fff;font-family:Tahoma, Tahoma;}.cls-4{letter-spacing:-0.02em;}.cls-5{letter-spacing:0em;}.cls-6{letter-spacing:-0.03em;}.cls-7{letter-spacing:0em;}.cls-8{letter-spacing:-0.04em;}.cls-9{letter-spacing:-0.02em;}</style></defs><title>logo-vinyl</title><g id="Layer_2" data-name="Layer 2"><g id="Layer_1-2" data-name="Layer 1"><path d="M655.63,89.58c-2.23.18-4.47.52-6.7.52q-321.45,0-642.9,0c-2,0-3.92-.14-5.87-.22V88.84c1.74-.06,3.49-.18,5.23-.18H649.86c1.92,0,3.85.11,5.77.17Z"/><path d="M655.63,133.15c-2.27.06-4.55.17-6.82.17H.21L0,132.57a20.77,20.77,0,0,1,2.88-.68c1.2-.12,2.45,0,3.67,0q320.93,0,641.85,0c2.41,0,4.82.34,7.23.52Z"/><path d="M2.63,129.14c3.89-5.44,7.35-10.49,11.11-15.41,1.52-2,1.42-3.59-.06-5.55-3.74-4.93-7.19-10-11-15.33H652.11C648.41,98,645,103,641.21,107.9c-1.75,2.24-1.63,4,.07,6.25,3.7,4.79,7.05,9.72,10.83,15Z"/><circle class="cls-1" cx="329.09" cy="103.75" r="103.75"/><g id="Layer_2-2" data-name="Layer 2"><g id="Layer_1-2-2" data-name="Layer 1-2"><path d="M429.2,133.07a104.22,104.22,0,0,1-200.22,0"/><path d="M329.09,71.6a23.41,23.41,0,0,1,22.33,16.46H432a104.2,104.2,0,0,0-205.89,0h80.62A23.41,23.41,0,0,1,329.09,71.6Z"/><path class="cls-2" d="M257.15,124.25h-2.53L241.85,99.34h6L256,115.8l7.85-16.46h6.25Z"/><path class="cls-2" d="M288.28,124.25V99.42h5.21v24.83Z"/><path class="cls-2" d="M337.31,124.25l-17-15.78s.12,1.17.12,2.56v13.22H315.2V99.42h2.4l17.15,16.1a20.75,20.75,0,0,1-.15-2.28V99.42h5.16v24.83Z"/><path class="cls-2" d="M373.35,113.35V124.2h-5.16V113.35l-10.45-14h6.33l6.78,9.69,7-9.69h6.21Z"/><path class="cls-2" d="M402,124.25V99.42h5.21l-.08,20h10.74v4.81Z"/></g></g><text class="cls-3" transform="translate(455.82 118.14)">WELLING<tspan class="cls-4" x="73.18" y="0">T</tspan><tspan class="cls-5" x="83.03" y="0">ON, NZ</tspan></text><text class="cls-3" transform="translate(26.93 118.14)">66 COU<tspan class="cls-6" x="59.16" y="0">R</tspan><tspan class="cls-7" x="69.59" y="0">TEN</tspan><tspan class="cls-8" x="101.43" y="0">A</tspan><tspan class="cls-7" x="111.31" y="0">Y P</tspan><tspan class="cls-9" x="136.6" y="0">L</tspan><tspan x="144.99" y="0">ACE</tspan></text></g></g></svg>