<svg xmlns="http://www.w3.org/2000/svg" viewBox="0 0 408.12 131.56"><defs><style>.cls-1{font-size:60px;}.cls-1,.cls-11,.cls-6{fill:#4a4d4f;}.cls-1,.cls-10,.cls-7{font-family:DINCondensed-Light, DIN Condensed;}.cls-2{letter-spacing:-0.01em;}.cls-3{letter-spacing:-0.05em;}.cls-4{letter-spacing:-0.02em;}.cls-5{letter-spacing:-0.08em;}.cls-6{font-size:24px;font-family:HarlowSolid, Harlow Solid Italic;font-style:italic;letter-spacing:0.02em;}.cls-7{font-size:16px;letter-spacing:0.03em;}.cls-8{letter-spacing:0.01em;}.cls-9{letter-spacing:0.02em;}.cls-10{font-size:58px;fill:#6c74dd;letter-spacing:0em;}</style></defs><title>saturday</title><g id="Layer_2" data-name="Layer 2"><g id="Layer_1-2" data-name="Layer 1"><text class="cls-1" transform="translate(0 51)"><tspan class="cls-2">S</tspan><tspan class="cls-3" x="25.26" y="0">A</tspan><tspan x="48.54" y="0">TUR</tspan><tspan class="cls-4" x="125.58" y="0">D</tspan><tspan class="cls-5" x="151.08" y="0">A</tspan><tspan x="173.04" y="0">Y</tspan></text><text class="cls-1" transform="translate(0 118)">SUN<tspan class="cls-4" x="82.44" y="0">D</tspan><tspan class="cls-5" x="107.94" y="0">A</tspan><tspan x="129.9" y="0">Y</tspan></text><text class="cls-6" transform="translate(212.26 28)">Jug Day $18</text><text class="cls-7" transform="translate(212.19 56)">SUPER JUG $18 | <tspan class="cls-8" x="98.72" y="0">S</tspan><tspan class="cls-9" x="105.85" y="0">ANGRIA $13</tspan></text><text class="cls-10" transform="translate(174.91 118)">2-4-1 PIZZA</text><polygon class="cls-11" points="27.2 56.03 29.29 60.25 33.94 60.93 30.57 64.22 31.37 68.85 27.2 66.66 23.04 68.85 23.84 64.22 20.47 60.93 25.12 60.25 27.2 56.03"/><polygon class="cls-11" points="8.44 56.03 10.52 60.25 15.18 60.93 11.81 64.22 12.61 68.85 8.44 66.66 4.28 68.85 5.07 64.22 1.7 60.93 6.36 60.25 8.44 56.03"/><polygon class="cls-11" points="45.97 56.03 48.05 60.25 52.71 60.93 49.34 64.22 50.13 68.85 45.97 66.66 41.8 68.85 42.6 64.22 39.23 60.93 43.89 60.25 45.97 56.03"/><polygon class="cls-11" points="83.5 56.03 85.58 60.25 90.24 60.93 86.87 64.22 87.66 68.85 83.5 66.66 79.33 68.85 80.13 64.22 76.76 60.93 81.42 60.25 83.5 56.03"/><polygon class="cls-11" points="64.73 56.03 66.82 60.25 71.47 60.93 68.1 64.22 68.9 68.85 64.73 66.66 60.57 68.85 61.37 64.22 58 60.93 62.65 60.25 64.73 56.03"/><polygon class="cls-11" points="102.26 56.03 104.35 60.25 109 60.93 105.63 64.22 106.43 68.85 102.26 66.66 98.1 68.85 98.89 64.22 95.53 60.93 100.18 60.25 102.26 56.03"/><polygon class="cls-11" points="139.79 56.03 141.88 60.25 146.53 60.93 143.16 64.22 143.96 68.85 139.79 66.66 135.63 68.85 136.42 64.22 133.06 60.93 137.71 60.25 139.79 56.03"/><polygon class="cls-11" points="121.03 56.03 123.11 60.25 127.77 60.93 124.4 64.22 125.19 68.85 121.03 66.66 116.86 68.85 117.66 64.22 114.29 60.93 118.95 60.25 121.03 56.03"/><polygon class="cls-11" points="158.56 56.03 160.64 60.25 165.3 60.93 161.93 64.22 162.72 68.85 158.56 66.66 154.39 68.85 155.19 64.22 151.82 60.93 156.48 60.25 158.56 56.03"/><polygon class="cls-11" points="196.09 56.03 198.17 60.25 202.83 60.93 199.46 64.22 200.25 68.85 196.09 66.66 191.92 68.85 192.72 64.22 189.35 60.93 194 60.25 196.09 56.03"/><polygon class="cls-11" points="177.32 56.03 179.41 60.25 184.06 60.93 180.69 64.22 181.49 68.85 177.32 66.66 173.16 68.85 173.95 64.22 170.58 60.93 175.24 60.25 177.32 56.03"/></g></g></svg>