<svg xmlns="http://www.w3.org/2000/svg" viewBox="0 0 760.13 28.99"><defs><style>.cls-1{fill:#4a4d4f;}</style></defs><title>stars</title><g id="Layer_2" data-name="Layer 2"><g id="Layer_1-2" data-name="Layer 1"><polygon class="cls-1" points="15.24 0 19.95 9.54 30.49 11.07 22.86 18.5 24.66 28.99 15.24 24.04 5.82 28.99 7.62 18.5 0 11.07 10.53 9.54 15.24 0"/><polygon class="cls-1" points="63.89 0 68.6 9.54 79.13 11.07 71.51 18.5 73.31 28.99 63.89 24.04 54.47 28.99 56.26 18.5 48.64 11.07 59.17 9.54 63.89 0"/><polygon class="cls-1" points="112.53 0 117.24 9.54 127.77 11.07 120.15 18.5 121.95 28.99 112.53 24.04 103.11 28.99 104.91 18.5 97.28 11.07 107.82 9.54 112.53 0"/><polygon class="cls-1" points="161.17 0 165.88 9.54 176.41 11.07 168.79 18.5 170.59 28.99 161.17 24.04 151.75 28.99 153.55 18.5 145.93 11.07 156.46 9.54 161.17 0"/><polygon class="cls-1" points="209.81 0 214.52 9.54 225.06 11.07 217.44 18.5 219.23 28.99 209.81 24.04 200.39 28.99 202.19 18.5 194.57 11.07 205.1 9.54 209.81 0"/><polygon class="cls-1" points="258.46 0 263.17 9.54 273.7 11.07 266.08 18.5 267.88 28.99 258.46 24.04 249.04 28.99 250.84 18.5 243.21 11.07 253.75 9.54 258.46 0"/><polygon class="cls-1" points="307.1 0 311.81 9.54 322.34 11.07 314.72 18.5 316.52 28.99 307.1 24.04 297.68 28.99 299.48 18.5 291.86 11.07 302.39 9.54 307.1 0"/><polygon class="cls-1" points="355.74 0 360.45 9.54 370.99 11.07 363.36 18.5 365.16 28.99 355.74 24.04 346.32 28.99 348.12 18.5 340.5 11.07 351.03 9.54 355.74 0"/><polygon class="cls-1" points="404.38 0 409.1 9.54 419.63 11.07 412.01 18.5 413.81 28.99 404.38 24.04 394.96 28.99 396.76 18.5 389.14 11.07 399.67 9.54 404.38 0"/><polygon class="cls-1" points="453.03 0 457.74 9.54 468.27 11.07 460.65 18.5 462.45 28.99 453.03 24.04 443.61 28.99 445.41 18.5 437.78 11.07 448.32 9.54 453.03 0"/><polygon class="cls-1" points="501.67 0 506.38 9.54 516.91 11.07 509.29 18.5 511.09 28.99 501.67 24.04 492.25 28.99 494.05 18.5 486.43 11.07 496.96 9.54 501.67 0"/><polygon class="cls-1" points="550.31 0 555.02 9.54 565.56 11.07 557.93 18.5 559.73 28.99 550.31 24.04 540.89 28.99 542.69 18.5 535.07 11.07 545.6 9.54 550.31 0"/><polygon class="cls-1" points="598.96 0 603.67 9.54 614.2 11.07 606.58 18.5 608.38 28.99 598.96 24.04 589.53 28.99 591.33 18.5 583.71 11.07 594.25 9.54 598.96 0"/><polygon class="cls-1" points="647.6 0 652.31 9.54 662.84 11.07 655.22 18.5 657.02 28.99 647.6 24.04 638.18 28.99 639.98 18.5 632.36 11.07 642.89 9.54 647.6 0"/><polygon class="cls-1" points="696.24 0 700.95 9.54 711.48 11.07 703.86 18.5 705.66 28.99 696.24 24.04 686.82 28.99 688.62 18.5 681 11.07 691.53 9.54 696.24 0"/><polygon class="cls-1" points="744.88 0 749.59 9.54 760.13 11.07 752.5 18.5 754.3 28.99 744.88 24.04 735.46 28.99 737.26 18.5 729.64 11.07 740.17 9.54 744.88 0"/></g></g></svg>